<svg viewBox="0 0 638 303" version="1.1" xmlns="http://www.w3.org/2000/svg" xmlns:xlink="http://www.w3.org/1999/xlink">
    <g id="Page-1" stroke="none" stroke-width="1" fill="none" fill-rule="evenodd">
        <g id="Artboard" transform="translate(-26.000000, -48.000000)" fill="#fff">
            <g id="just-logo" transform="translate(26.000000, 48.000000)">
                <path d="M206.472492,98.9387755 L206.472492,76.5672167 L165.177994,76.5672167 L165.177994,181.689666 L165.211757,181.689666 C166.300881,214.886978 193.601204,241.465176 227.119741,241.465176 C260.638278,241.465176 287.938602,214.886978 289.027725,181.689676 L289.061489,181.689666 L289.061489,76.5672167 L247.76699,76.5672167 L247.76699,98.9387755 L247.76699,179.628441 C247.76699,191.01227 238.522902,200.240686 227.119741,200.240686 C215.71658,200.240686 206.472492,191.01227 206.472492,179.628441 L206.472492,98.9387755 Z" id="U"></path>
                <path d="M0.613299433,257.10061 C7.65464227,283.52826 31.788662,303 60.4782736,303 C94.6877562,303 122.420021,275.314751 122.420021,241.163265 L122.420021,76.2653061 L81.1255228,76.2653061 L81.1255228,170.779722 L81.1255228,241.163254 C81.1255228,252.547094 71.8814344,261.77551 60.4782736,261.77551 C51.2007833,261.77551 43.3524427,255.666966 40.7487972,247.258955 L0.613299433,257.10061 Z" id="J"></path>
                <path d="M447.271036,193.223693 C447.271036,209.842398 441.488251,222.499478 429.922507,231.195313 C418.356764,239.891147 401.0568,244.238999 378.022097,244.238999 C343.736372,244.238999 324.161812,220.897242 324.161812,220.897242 L347.446425,198.006378 C355.673104,201.871193 359.983983,211.919643 379.473857,211.919643 C395.540078,211.919643 403.573068,207.281934 403.573068,198.006378 C403.573068,194.528044 402.508455,191.70194 400.379197,189.527982 C398.249939,187.354023 394.572184,184.89024 389.345823,182.136559 C384.119462,179.382878 377.151085,176.170299 368.440483,172.498724 C355.955287,167.281224 346.785097,162.450277 340.929637,158.00574 C335.074177,153.561202 330.815724,148.464554 328.154151,142.715641 C325.492579,136.966728 324.161812,129.889392 324.161812,121.483418 C324.161812,107.086982 329.751031,95.9516497 340.929637,88.0770886 C352.108243,80.2025276 367.956461,76.2653061 388.474767,76.2653061 L447.325225,76.2653061 L464.782887,113.247579 L418.318511,113.518819 L379.473857,113.518819 C366.407954,113.518819 366.178662,114.869484 364.488471,117.666932 C362.79828,120.46438 363.940007,124.200979 368.150131,127.09959 C372.360256,129.998202 387.893992,137.087503 402.121309,142.788106 C414.800074,147.908986 424.091243,152.691623 429.995095,157.136161 C435.898947,161.580698 440.254183,166.701502 443.060932,172.498724 C445.867682,178.295947 447.271036,185.204201 447.271036,193.223693 Z" id="s"></path>
                <path d="M530.634304,76.2653061 L530.634304,35.0408163 L489.339806,35.0408163 L489.339806,76.2653061 L443.915858,76.2653061 L443.915858,113.367347 L489.339806,113.367347 L489.339806,158.714286 L530.634304,158.714286 L530.634304,113.367347 L559.540453,113.367347 L559.540453,76.2653061 L530.634304,76.2653061 Z" id="Combined-Shape"></path>
                <path d="M530.634304,98.9387755 L530.634304,76.5672167 L489.339806,76.5672167 L489.339806,181.689666 L489.37357,181.689666 C490.462693,214.886978 517.763017,241.465176 551.281553,241.465176 C555.419511,241.465176 559.4627,241.060108 563.373502,240.287526 L563.373502,200.147184 C559.140867,200.34698 554.840356,200.240686 551.281553,200.240686 C539.878393,200.240686 530.634304,191.01227 530.634304,179.628441 L530.634304,98.9387755 Z" id="U-Copy"></path>
                <ellipse id="Oval-4" cx="616.320388" cy="221.581633" rx="21.6796117" ry="21.6428571"></ellipse>
                <ellipse id="Oval-5" cx="102.203883" cy="23.7040816" rx="23.7443366" ry="23.7040816"></ellipse>
            </g>
        </g>
    </g>
</svg>