<?xml version="1.0" encoding="utf-8"?>
<!-- Generator: Adobe Illustrator 15.1.0, SVG Export Plug-In . SVG Version: 6.00 Build 0)  -->
<!DOCTYPE svg PUBLIC "-//W3C//DTD SVG 1.1//EN" "http://www.w3.org/Graphics/SVG/1.1/DTD/svg11.dtd">
<svg version="1.1" id="Calque_1" xmlns="http://www.w3.org/2000/svg" xmlns:xlink="http://www.w3.org/1999/xlink" x="0px" y="0px"
	 width="549px" height="266px" viewBox="0 0 549 266" enable-background="new 0 0 549 266" xml:space="preserve">
<g>
	<path fill-rule="evenodd" clip-rule="evenodd" fill="#FFFFFF" d="M124.1,22.2c11.6-1.6,21.7,6.7,20.8,20c-1.6,24-41.4,20-36-7.2
		C110,30,114.3,23.5,124.1,22.2z"/>
	<path fill-rule="evenodd" clip-rule="evenodd" fill="#FFFFFF" d="M424.5,37.4c0,13,0,26.1,0,39.1c5.6,0,11.2,0,16.8,0
		c0.2,6.4-0.1,19,0,28c-5.3,0-10.7,0-16,0c0.4,31.4-7.8,68.4,29.6,63.9c0,8.5,0,17,0,25.6c-17.3,2-32.8-1-42.3-8.8
		c-17.6-14.5-18.2-46.6-16-81.5c-17.7-0.4-42,0.6-59.1,0c-6.2-0.2-12.7-2.2-15.2,4c11.2,18.5,39,18.2,47.1,38.4
		c6.8,16.9-0.5,34-10.4,41.5c-19.3,14.7-56.4,8.5-67.9-11.2c4.6-7.6,12.3-12.2,16.8-20c5.5,3.4,10.4,11.2,19.2,12.8
		c17.7,3.2,21.4-11.4,8.8-19.2c-15.5-9.6-39.5-14.2-40.7-39.1c-0.9-18.1,11.6-31.5,28-34.4c20.5-3.5,47.6,2.6,71.9,0
		c2.8-11-1.7-29.4,2.4-39.1C406.4,37.4,415.5,37.4,424.5,37.4z"/>
	<path fill-rule="evenodd" clip-rule="evenodd" fill="#FFFFFF" d="M112.9,79.7c10.4,0,20.8,0,31.2,0c0,21.8,0,47.9,0,73.5
		c0,23.2,2.9,49.2-4.8,65.5c-11.6,24.8-61.7,36.3-84.7,12.8c-9-9.2-12.6-21.5-12.8-40.7c11,0.9,20.4-4.1,29.6-2.4
		c3.7,5.3-0.2,16.2,7.2,23.2c5.8,5.5,21,6,27.2,0.8c10-8.4,6.4-43.1,6.4-62.3c0-26.4,0-48.7,0-67.9C112.1,81,112,79.9,112.9,79.7z"
		/>
	<path fill-rule="evenodd" clip-rule="evenodd" fill="#FFFFFF" d="M172.1,79.7c9.6,0,19.2,0,28.8,0c4,29.7-10.7,83,15.2,88.7
		c39.6,8.7,24.3-55.5,27.2-88.7c9.6,0,19.2,0,28.8,0c-3.3,33.4,6.1,63-4.8,89.5c-12.7,30.8-68.6,36.3-87.1,7.2
		c-13.6-21.4-7.1-59.7-8.8-94.3C171.2,81,171.1,79.9,172.1,79.7z"/>
	<path fill-rule="evenodd" clip-rule="evenodd" fill="#FFFFFF" d="M487.7,164.4c24.7-4.6,25.6,35.6,0.8,32.8
		C470.7,195.1,469.7,167.7,487.7,164.4z"/>
</g>
</svg>
