<?xml version="1.0" standalone="no"?>
<!DOCTYPE svg PUBLIC "-//W3C//DTD SVG 20010904//EN"
 "http://www.w3.org/TR/2001/REC-SVG-20010904/DTD/svg10.dtd">
<svg version="1.0" xmlns="http://www.w3.org/2000/svg"
 width="260.000000pt" height="260.000000pt" viewBox="0 0 260.000000 260.000000"
 preserveAspectRatio="xMidYMid meet">
<metadata>
Created by potrace 1.11, written by Peter Selinger 2001-2013
</metadata>
<g transform="translate(0.000000,260.000000) scale(0.100000,-0.100000)"
fill="#000000" stroke="none">
<path d="M370 1908 c-29 -16 -50 -52 -50 -90 0 -41 47 -89 88 -90 93 -3 139
100 74 164 -24 24 -81 32 -112 16z"/>
<path d="M2004 1772 c-6 -4 -11 -39 -10 -82 l1 -75 -260 -5 c-247 -5 -262 -6
-308 -29 -87 -43 -123 -123 -98 -218 16 -58 53 -90 183 -153 109 -53 144 -83
132 -114 -17 -44 -125 -51 -184 -12 -22 14 -42 26 -44 26 -2 0 -25 -20 -50
-45 l-46 -45 21 -21 c11 -11 46 -33 78 -47 108 -50 282 -28 351 43 72 74 70
208 -4 273 -18 15 -82 50 -142 76 -60 26 -118 56 -129 67 -39 39 -9 44 255 44
l242 0 3 -165 c2 -183 9 -212 67 -273 42 -44 101 -74 159 -80 67 -8 74 0 75
88 1 62 -2 75 -15 76 -9 1 -23 3 -31 3 -75 7 -87 37 -86 211 l1 140 55 0 55 0
5 40 c3 22 3 57 1 77 l-3 37 -57 3 -56 3 0 80 -1 80 -74 2 c-42 1 -80 -1 -86
-5z"/>
<path d="M330 1261 c0 -350 0 -350 -23 -376 -33 -39 -91 -39 -122 -1 l-23 29
-74 -18 c-40 -10 -76 -21 -80 -25 -10 -8 27 -78 60 -112 14 -15 46 -37 71 -49
123 -58 267 -8 334 116 21 39 22 53 25 413 l3 372 -86 0 -85 0 0 -349z"/>
<path d="M672 1386 c-1 -264 7 -303 71 -369 47 -48 73 -63 134 -76 83 -17 159
5 223 67 72 71 80 107 80 378 l0 221 -84 1 -85 1 -3 -229 c-3 -214 -4 -231
-23 -249 -39 -40 -116 -27 -134 22 -5 13 -9 119 -9 237 l0 215 -85 1 -84 2 -1
-222z"/>
<path d="M2471 1093 c-80 -39 -50 -163 39 -163 55 0 94 41 87 93 -3 21 -13 47
-22 57 -22 24 -68 30 -104 13z"/>
</g>
</svg>
